<mxfile host="app.diagrams.net" agent="Mozilla/5.0 (Windows NT 10.0; Win64; x64) AppleWebKit/537.36 (KHTML, like Gecko) Chrome/134.0.0.0 Safari/537.36 Edg/134.0.0.0" version="26.1.0">
  <diagram id="R2lEEEUBdFMjLlhIrx00" name="Page-1">
    <mxGraphModel dx="2350" dy="813" grid="1" gridSize="10" guides="1" tooltips="1" connect="1" arrows="1" fold="1" page="1" pageScale="1" pageWidth="850" pageHeight="1100" math="0" shadow="0" extFonts="Permanent Marker^https://fonts.googleapis.com/css?family=Permanent+Marker">
      <root>
        <mxCell id="0" />
        <mxCell id="1" parent="0" />
        <mxCell id="5-M_Rkz2rhJY8XIJQXvp-68" value="Candidates" style="shape=table;startSize=30;container=1;collapsible=0;childLayout=tableLayout;fillColor=#dae8fc;strokeColor=#6c8ebf;" vertex="1" parent="1">
          <mxGeometry x="-19" y="20" width="150" height="250" as="geometry" />
        </mxCell>
        <mxCell id="5-M_Rkz2rhJY8XIJQXvp-69" value="" style="shape=tableRow;horizontal=0;startSize=0;swimlaneHead=0;swimlaneBody=0;strokeColor=inherit;top=0;left=0;bottom=0;right=0;collapsible=0;dropTarget=0;fillColor=none;points=[[0,0.5],[1,0.5]];portConstraint=eastwest;" vertex="1" parent="5-M_Rkz2rhJY8XIJQXvp-68">
          <mxGeometry y="30" width="150" height="33" as="geometry" />
        </mxCell>
        <mxCell id="5-M_Rkz2rhJY8XIJQXvp-70" value="&lt;font style=&quot;font-size: 11px;&quot;&gt;PK_Candidates_&lt;/font&gt;&lt;span style=&quot;color: light-dark(rgb(0, 0, 0), rgb(255, 255, 255)); background-color: transparent; font-size: 11px;&quot;&gt;CandidateID:&amp;nbsp;&lt;/span&gt;&lt;div&gt;&lt;span style=&quot;color: light-dark(rgb(0, 0, 0), rgb(255, 255, 255)); background-color: transparent; font-size: 11px;&quot;&gt;INT,&amp;nbsp;&lt;/span&gt;&lt;span style=&quot;background-color: transparent; color: light-dark(rgb(0, 0, 0), rgb(255, 255, 255));&quot;&gt;AUTO_INCREMENT&lt;/span&gt;&lt;/div&gt;" style="shape=partialRectangle;html=1;whiteSpace=wrap;connectable=0;strokeColor=inherit;overflow=hidden;fillColor=none;top=0;left=0;bottom=0;right=0;pointerEvents=1;" vertex="1" parent="5-M_Rkz2rhJY8XIJQXvp-69">
          <mxGeometry width="150" height="33" as="geometry">
            <mxRectangle width="150" height="33" as="alternateBounds" />
          </mxGeometry>
        </mxCell>
        <mxCell id="5-M_Rkz2rhJY8XIJQXvp-71" value="" style="shape=tableRow;horizontal=0;startSize=0;swimlaneHead=0;swimlaneBody=0;strokeColor=inherit;top=0;left=0;bottom=0;right=0;collapsible=0;dropTarget=0;fillColor=none;points=[[0,0.5],[1,0.5]];portConstraint=eastwest;" vertex="1" parent="5-M_Rkz2rhJY8XIJQXvp-68">
          <mxGeometry y="63" width="150" height="34" as="geometry" />
        </mxCell>
        <mxCell id="5-M_Rkz2rhJY8XIJQXvp-72" value="FirstName:&amp;nbsp;&lt;div&gt;VARCHAR(50),&amp;nbsp;NOT NULL&lt;/div&gt;" style="shape=partialRectangle;html=1;whiteSpace=wrap;connectable=0;strokeColor=inherit;overflow=hidden;fillColor=none;top=0;left=0;bottom=0;right=0;pointerEvents=1;" vertex="1" parent="5-M_Rkz2rhJY8XIJQXvp-71">
          <mxGeometry width="150" height="34" as="geometry">
            <mxRectangle width="150" height="34" as="alternateBounds" />
          </mxGeometry>
        </mxCell>
        <mxCell id="5-M_Rkz2rhJY8XIJQXvp-73" value="" style="shape=tableRow;horizontal=0;startSize=0;swimlaneHead=0;swimlaneBody=0;strokeColor=inherit;top=0;left=0;bottom=0;right=0;collapsible=0;dropTarget=0;fillColor=none;points=[[0,0.5],[1,0.5]];portConstraint=eastwest;" vertex="1" parent="5-M_Rkz2rhJY8XIJQXvp-68">
          <mxGeometry y="97" width="150" height="33" as="geometry" />
        </mxCell>
        <mxCell id="5-M_Rkz2rhJY8XIJQXvp-74" value="LastName:&lt;div&gt;VARCHAR(50),&amp;nbsp;NOT NULL&lt;/div&gt;" style="shape=partialRectangle;html=1;whiteSpace=wrap;connectable=0;strokeColor=inherit;overflow=hidden;fillColor=none;top=0;left=0;bottom=0;right=0;pointerEvents=1;" vertex="1" parent="5-M_Rkz2rhJY8XIJQXvp-73">
          <mxGeometry width="150" height="33" as="geometry">
            <mxRectangle width="150" height="33" as="alternateBounds" />
          </mxGeometry>
        </mxCell>
        <mxCell id="5-M_Rkz2rhJY8XIJQXvp-75" value="" style="shape=tableRow;horizontal=0;startSize=0;swimlaneHead=0;swimlaneBody=0;strokeColor=inherit;top=0;left=0;bottom=0;right=0;collapsible=0;dropTarget=0;fillColor=none;points=[[0,0.5],[1,0.5]];portConstraint=eastwest;" vertex="1" parent="5-M_Rkz2rhJY8XIJQXvp-68">
          <mxGeometry y="130" width="150" height="40" as="geometry" />
        </mxCell>
        <mxCell id="5-M_Rkz2rhJY8XIJQXvp-76" value="Email:&amp;nbsp;VARCHAR(50),&amp;nbsp;&lt;div&gt;&lt;table&gt;&lt;tbody&gt;&lt;tr&gt;&lt;td&gt;&lt;/td&gt;&lt;/tr&gt;&lt;/tbody&gt;&lt;/table&gt;&lt;table&gt;&lt;tbody&gt;&lt;tr&gt;&lt;td&gt;UNIQUE, NOT NULL&lt;/td&gt;&lt;/tr&gt;&lt;/tbody&gt;&lt;/table&gt;&lt;/div&gt;" style="shape=partialRectangle;html=1;whiteSpace=wrap;connectable=0;strokeColor=inherit;overflow=hidden;fillColor=none;top=0;left=0;bottom=0;right=0;pointerEvents=1;" vertex="1" parent="5-M_Rkz2rhJY8XIJQXvp-75">
          <mxGeometry width="150" height="40" as="geometry">
            <mxRectangle width="150" height="40" as="alternateBounds" />
          </mxGeometry>
        </mxCell>
        <mxCell id="5-M_Rkz2rhJY8XIJQXvp-77" value="" style="shape=tableRow;horizontal=0;startSize=0;swimlaneHead=0;swimlaneBody=0;strokeColor=inherit;top=0;left=0;bottom=0;right=0;collapsible=0;dropTarget=0;fillColor=none;points=[[0,0.5],[1,0.5]];portConstraint=eastwest;" vertex="1" parent="5-M_Rkz2rhJY8XIJQXvp-68">
          <mxGeometry y="170" width="150" height="34" as="geometry" />
        </mxCell>
        <mxCell id="5-M_Rkz2rhJY8XIJQXvp-78" value="PhoneNumber:&lt;div&gt;INT,&amp;nbsp;UNIQUE&lt;/div&gt;" style="shape=partialRectangle;html=1;whiteSpace=wrap;connectable=0;strokeColor=inherit;overflow=hidden;fillColor=none;top=0;left=0;bottom=0;right=0;pointerEvents=1;" vertex="1" parent="5-M_Rkz2rhJY8XIJQXvp-77">
          <mxGeometry width="150" height="34" as="geometry">
            <mxRectangle width="150" height="34" as="alternateBounds" />
          </mxGeometry>
        </mxCell>
        <mxCell id="5-M_Rkz2rhJY8XIJQXvp-79" value="" style="shape=tableRow;horizontal=0;startSize=0;swimlaneHead=0;swimlaneBody=0;strokeColor=inherit;top=0;left=0;bottom=0;right=0;collapsible=0;dropTarget=0;fillColor=none;points=[[0,0.5],[1,0.5]];portConstraint=eastwest;" vertex="1" parent="5-M_Rkz2rhJY8XIJQXvp-68">
          <mxGeometry y="204" width="150" height="46" as="geometry" />
        </mxCell>
        <mxCell id="5-M_Rkz2rhJY8XIJQXvp-80" value="CV: TEXT,NULLABLE" style="shape=partialRectangle;html=1;whiteSpace=wrap;connectable=0;strokeColor=inherit;overflow=hidden;fillColor=none;top=0;left=0;bottom=0;right=0;pointerEvents=1;" vertex="1" parent="5-M_Rkz2rhJY8XIJQXvp-79">
          <mxGeometry width="150" height="46" as="geometry">
            <mxRectangle width="150" height="46" as="alternateBounds" />
          </mxGeometry>
        </mxCell>
        <mxCell id="5-M_Rkz2rhJY8XIJQXvp-81" value="Jobs" style="shape=table;startSize=30;container=1;collapsible=0;childLayout=tableLayout;fillColor=#dae8fc;strokeColor=#6c8ebf;" vertex="1" parent="1">
          <mxGeometry x="400" y="360" width="140" height="220" as="geometry" />
        </mxCell>
        <mxCell id="5-M_Rkz2rhJY8XIJQXvp-82" value="" style="shape=tableRow;horizontal=0;startSize=0;swimlaneHead=0;swimlaneBody=0;strokeColor=inherit;top=0;left=0;bottom=0;right=0;collapsible=0;dropTarget=0;fillColor=none;points=[[0,0.5],[1,0.5]];portConstraint=eastwest;" vertex="1" parent="5-M_Rkz2rhJY8XIJQXvp-81">
          <mxGeometry y="30" width="140" height="32" as="geometry" />
        </mxCell>
        <mxCell id="5-M_Rkz2rhJY8XIJQXvp-83" value="PK_Jobs_JobID: INT" style="shape=partialRectangle;html=1;whiteSpace=wrap;connectable=0;strokeColor=inherit;overflow=hidden;fillColor=none;top=0;left=0;bottom=0;right=0;pointerEvents=1;" vertex="1" parent="5-M_Rkz2rhJY8XIJQXvp-82">
          <mxGeometry width="140" height="32" as="geometry">
            <mxRectangle width="140" height="32" as="alternateBounds" />
          </mxGeometry>
        </mxCell>
        <mxCell id="5-M_Rkz2rhJY8XIJQXvp-84" value="" style="shape=tableRow;horizontal=0;startSize=0;swimlaneHead=0;swimlaneBody=0;strokeColor=inherit;top=0;left=0;bottom=0;right=0;collapsible=0;dropTarget=0;fillColor=none;points=[[0,0.5],[1,0.5]];portConstraint=eastwest;" vertex="1" parent="5-M_Rkz2rhJY8XIJQXvp-81">
          <mxGeometry y="62" width="140" height="31" as="geometry" />
        </mxCell>
        <mxCell id="5-M_Rkz2rhJY8XIJQXvp-85" value="Title: VARCHAR(100)" style="shape=partialRectangle;html=1;whiteSpace=wrap;connectable=0;strokeColor=inherit;overflow=hidden;fillColor=none;top=0;left=0;bottom=0;right=0;pointerEvents=1;" vertex="1" parent="5-M_Rkz2rhJY8XIJQXvp-84">
          <mxGeometry width="140" height="31" as="geometry">
            <mxRectangle width="140" height="31" as="alternateBounds" />
          </mxGeometry>
        </mxCell>
        <mxCell id="5-M_Rkz2rhJY8XIJQXvp-86" value="" style="shape=tableRow;horizontal=0;startSize=0;swimlaneHead=0;swimlaneBody=0;strokeColor=inherit;top=0;left=0;bottom=0;right=0;collapsible=0;dropTarget=0;fillColor=none;points=[[0,0.5],[1,0.5]];portConstraint=eastwest;" vertex="1" parent="5-M_Rkz2rhJY8XIJQXvp-81">
          <mxGeometry y="93" width="140" height="32" as="geometry" />
        </mxCell>
        <mxCell id="5-M_Rkz2rhJY8XIJQXvp-87" value="Description: TEXT" style="shape=partialRectangle;html=1;whiteSpace=wrap;connectable=0;strokeColor=inherit;overflow=hidden;fillColor=none;top=0;left=0;bottom=0;right=0;pointerEvents=1;" vertex="1" parent="5-M_Rkz2rhJY8XIJQXvp-86">
          <mxGeometry width="140" height="32" as="geometry">
            <mxRectangle width="140" height="32" as="alternateBounds" />
          </mxGeometry>
        </mxCell>
        <mxCell id="5-M_Rkz2rhJY8XIJQXvp-88" value="" style="shape=tableRow;horizontal=0;startSize=0;swimlaneHead=0;swimlaneBody=0;strokeColor=inherit;top=0;left=0;bottom=0;right=0;collapsible=0;dropTarget=0;fillColor=none;points=[[0,0.5],[1,0.5]];portConstraint=eastwest;" vertex="1" parent="5-M_Rkz2rhJY8XIJQXvp-81">
          <mxGeometry y="125" width="140" height="32" as="geometry" />
        </mxCell>
        <mxCell id="5-M_Rkz2rhJY8XIJQXvp-89" value="Salary: DECIMAL(10,2)" style="shape=partialRectangle;html=1;whiteSpace=wrap;connectable=0;strokeColor=inherit;overflow=hidden;fillColor=none;top=0;left=0;bottom=0;right=0;pointerEvents=1;" vertex="1" parent="5-M_Rkz2rhJY8XIJQXvp-88">
          <mxGeometry width="140" height="32" as="geometry">
            <mxRectangle width="140" height="32" as="alternateBounds" />
          </mxGeometry>
        </mxCell>
        <mxCell id="5-M_Rkz2rhJY8XIJQXvp-90" value="" style="shape=tableRow;horizontal=0;startSize=0;swimlaneHead=0;swimlaneBody=0;strokeColor=inherit;top=0;left=0;bottom=0;right=0;collapsible=0;dropTarget=0;fillColor=none;points=[[0,0.5],[1,0.5]];portConstraint=eastwest;" vertex="1" parent="5-M_Rkz2rhJY8XIJQXvp-81">
          <mxGeometry y="157" width="140" height="31" as="geometry" />
        </mxCell>
        <mxCell id="5-M_Rkz2rhJY8XIJQXvp-91" value="Location: VARCHAR(100" style="shape=partialRectangle;html=1;whiteSpace=wrap;connectable=0;strokeColor=inherit;overflow=hidden;fillColor=none;top=0;left=0;bottom=0;right=0;pointerEvents=1;" vertex="1" parent="5-M_Rkz2rhJY8XIJQXvp-90">
          <mxGeometry width="140" height="31" as="geometry">
            <mxRectangle width="140" height="31" as="alternateBounds" />
          </mxGeometry>
        </mxCell>
        <mxCell id="5-M_Rkz2rhJY8XIJQXvp-92" value="" style="shape=tableRow;horizontal=0;startSize=0;swimlaneHead=0;swimlaneBody=0;strokeColor=inherit;top=0;left=0;bottom=0;right=0;collapsible=0;dropTarget=0;fillColor=none;points=[[0,0.5],[1,0.5]];portConstraint=eastwest;" vertex="1" parent="5-M_Rkz2rhJY8XIJQXvp-81">
          <mxGeometry y="188" width="140" height="32" as="geometry" />
        </mxCell>
        <mxCell id="5-M_Rkz2rhJY8XIJQXvp-93" value="FK_Jobs_EmployerID: INT" style="shape=partialRectangle;html=1;whiteSpace=wrap;connectable=0;strokeColor=inherit;overflow=hidden;fillColor=none;top=0;left=0;bottom=0;right=0;pointerEvents=1;" vertex="1" parent="5-M_Rkz2rhJY8XIJQXvp-92">
          <mxGeometry width="140" height="32" as="geometry">
            <mxRectangle width="140" height="32" as="alternateBounds" />
          </mxGeometry>
        </mxCell>
        <mxCell id="5-M_Rkz2rhJY8XIJQXvp-94" value="Employers" style="shape=table;startSize=30;container=1;collapsible=0;childLayout=tableLayout;fillColor=#dae8fc;strokeColor=#6c8ebf;" vertex="1" parent="1">
          <mxGeometry x="400" y="10" width="170" height="230" as="geometry" />
        </mxCell>
        <mxCell id="5-M_Rkz2rhJY8XIJQXvp-95" value="" style="shape=tableRow;horizontal=0;startSize=0;swimlaneHead=0;swimlaneBody=0;strokeColor=inherit;top=0;left=0;bottom=0;right=0;collapsible=0;dropTarget=0;fillColor=none;points=[[0,0.5],[1,0.5]];portConstraint=eastwest;" vertex="1" parent="5-M_Rkz2rhJY8XIJQXvp-94">
          <mxGeometry y="30" width="170" height="40" as="geometry" />
        </mxCell>
        <mxCell id="5-M_Rkz2rhJY8XIJQXvp-96" value="PK_Employers_EmployersID: INT,&amp;nbsp;AUTO_INCREMENT" style="shape=partialRectangle;html=1;whiteSpace=wrap;connectable=0;strokeColor=inherit;overflow=hidden;fillColor=none;top=0;left=0;bottom=0;right=0;pointerEvents=1;" vertex="1" parent="5-M_Rkz2rhJY8XIJQXvp-95">
          <mxGeometry width="170" height="40" as="geometry">
            <mxRectangle width="170" height="40" as="alternateBounds" />
          </mxGeometry>
        </mxCell>
        <mxCell id="5-M_Rkz2rhJY8XIJQXvp-97" value="" style="shape=tableRow;horizontal=0;startSize=0;swimlaneHead=0;swimlaneBody=0;strokeColor=inherit;top=0;left=0;bottom=0;right=0;collapsible=0;dropTarget=0;fillColor=none;points=[[0,0.5],[1,0.5]];portConstraint=eastwest;" vertex="1" parent="5-M_Rkz2rhJY8XIJQXvp-94">
          <mxGeometry y="70" width="170" height="40" as="geometry" />
        </mxCell>
        <mxCell id="5-M_Rkz2rhJY8XIJQXvp-98" value="CompanyName: VARCHAR(100),&amp;nbsp;NOT NULL" style="shape=partialRectangle;html=1;whiteSpace=wrap;connectable=0;strokeColor=inherit;overflow=hidden;fillColor=none;top=0;left=0;bottom=0;right=0;pointerEvents=1;" vertex="1" parent="5-M_Rkz2rhJY8XIJQXvp-97">
          <mxGeometry width="170" height="40" as="geometry">
            <mxRectangle width="170" height="40" as="alternateBounds" />
          </mxGeometry>
        </mxCell>
        <mxCell id="5-M_Rkz2rhJY8XIJQXvp-99" value="" style="shape=tableRow;horizontal=0;startSize=0;swimlaneHead=0;swimlaneBody=0;strokeColor=inherit;top=0;left=0;bottom=0;right=0;collapsible=0;dropTarget=0;fillColor=none;points=[[0,0.5],[1,0.5]];portConstraint=eastwest;" vertex="1" parent="5-M_Rkz2rhJY8XIJQXvp-94">
          <mxGeometry y="110" width="170" height="40" as="geometry" />
        </mxCell>
        <mxCell id="5-M_Rkz2rhJY8XIJQXvp-100" value="Industry:&amp;nbsp;VARCHAR(100),&amp;nbsp;NOT NULL" style="shape=partialRectangle;html=1;whiteSpace=wrap;connectable=0;strokeColor=inherit;overflow=hidden;fillColor=none;top=0;left=0;bottom=0;right=0;pointerEvents=1;" vertex="1" parent="5-M_Rkz2rhJY8XIJQXvp-99">
          <mxGeometry width="170" height="40" as="geometry">
            <mxRectangle width="170" height="40" as="alternateBounds" />
          </mxGeometry>
        </mxCell>
        <mxCell id="5-M_Rkz2rhJY8XIJQXvp-101" value="" style="shape=tableRow;horizontal=0;startSize=0;swimlaneHead=0;swimlaneBody=0;strokeColor=inherit;top=0;left=0;bottom=0;right=0;collapsible=0;dropTarget=0;fillColor=none;points=[[0,0.5],[1,0.5]];portConstraint=eastwest;" vertex="1" parent="5-M_Rkz2rhJY8XIJQXvp-94">
          <mxGeometry y="150" width="170" height="40" as="geometry" />
        </mxCell>
        <mxCell id="5-M_Rkz2rhJY8XIJQXvp-102" value="ContactEmail: VARCHAR(100),&amp;nbsp;UNIQUE, NOT NULL" style="shape=partialRectangle;html=1;whiteSpace=wrap;connectable=0;strokeColor=inherit;overflow=hidden;fillColor=none;top=0;left=0;bottom=0;right=0;pointerEvents=1;" vertex="1" parent="5-M_Rkz2rhJY8XIJQXvp-101">
          <mxGeometry width="170" height="40" as="geometry">
            <mxRectangle width="170" height="40" as="alternateBounds" />
          </mxGeometry>
        </mxCell>
        <mxCell id="5-M_Rkz2rhJY8XIJQXvp-103" value="" style="shape=tableRow;horizontal=0;startSize=0;swimlaneHead=0;swimlaneBody=0;strokeColor=inherit;top=0;left=0;bottom=0;right=0;collapsible=0;dropTarget=0;fillColor=none;points=[[0,0.5],[1,0.5]];portConstraint=eastwest;" vertex="1" parent="5-M_Rkz2rhJY8XIJQXvp-94">
          <mxGeometry y="190" width="170" height="40" as="geometry" />
        </mxCell>
        <mxCell id="5-M_Rkz2rhJY8XIJQXvp-104" value="ContactPhone: VARCHAR(15),&amp;nbsp;UNIQUE" style="shape=partialRectangle;html=1;whiteSpace=wrap;connectable=0;strokeColor=inherit;overflow=hidden;fillColor=none;top=0;left=0;bottom=0;right=0;pointerEvents=1;" vertex="1" parent="5-M_Rkz2rhJY8XIJQXvp-103">
          <mxGeometry width="170" height="40" as="geometry">
            <mxRectangle width="170" height="40" as="alternateBounds" />
          </mxGeometry>
        </mxCell>
        <mxCell id="5-M_Rkz2rhJY8XIJQXvp-105" value="Applications" style="shape=table;startSize=30;container=1;collapsible=0;childLayout=tableLayout;fillColor=#dae8fc;strokeColor=#6c8ebf;" vertex="1" parent="1">
          <mxGeometry x="630" y="50" width="180" height="240" as="geometry" />
        </mxCell>
        <mxCell id="5-M_Rkz2rhJY8XIJQXvp-106" value="" style="shape=tableRow;horizontal=0;startSize=0;swimlaneHead=0;swimlaneBody=0;strokeColor=inherit;top=0;left=0;bottom=0;right=0;collapsible=0;dropTarget=0;fillColor=none;points=[[0,0.5],[1,0.5]];portConstraint=eastwest;" vertex="1" parent="5-M_Rkz2rhJY8XIJQXvp-105">
          <mxGeometry y="30" width="180" height="53" as="geometry" />
        </mxCell>
        <mxCell id="5-M_Rkz2rhJY8XIJQXvp-107" value="PK_Applications_ApplicationID: INT,&amp;nbsp;AUTO_INCREMENT" style="shape=partialRectangle;html=1;whiteSpace=wrap;connectable=0;strokeColor=inherit;overflow=hidden;fillColor=none;top=0;left=0;bottom=0;right=0;pointerEvents=1;" vertex="1" parent="5-M_Rkz2rhJY8XIJQXvp-106">
          <mxGeometry width="180" height="53" as="geometry">
            <mxRectangle width="180" height="53" as="alternateBounds" />
          </mxGeometry>
        </mxCell>
        <mxCell id="5-M_Rkz2rhJY8XIJQXvp-108" value="" style="shape=tableRow;horizontal=0;startSize=0;swimlaneHead=0;swimlaneBody=0;strokeColor=inherit;top=0;left=0;bottom=0;right=0;collapsible=0;dropTarget=0;fillColor=none;points=[[0,0.5],[1,0.5]];portConstraint=eastwest;" vertex="1" parent="5-M_Rkz2rhJY8XIJQXvp-105">
          <mxGeometry y="83" width="180" height="52" as="geometry" />
        </mxCell>
        <mxCell id="5-M_Rkz2rhJY8XIJQXvp-109" value="FK_Applications_CandidateID: INT" style="shape=partialRectangle;html=1;whiteSpace=wrap;connectable=0;strokeColor=inherit;overflow=hidden;fillColor=none;top=0;left=0;bottom=0;right=0;pointerEvents=1;" vertex="1" parent="5-M_Rkz2rhJY8XIJQXvp-108">
          <mxGeometry width="180" height="52" as="geometry">
            <mxRectangle width="180" height="52" as="alternateBounds" />
          </mxGeometry>
        </mxCell>
        <mxCell id="5-M_Rkz2rhJY8XIJQXvp-110" value="" style="shape=tableRow;horizontal=0;startSize=0;swimlaneHead=0;swimlaneBody=0;strokeColor=inherit;top=0;left=0;bottom=0;right=0;collapsible=0;dropTarget=0;fillColor=none;points=[[0,0.5],[1,0.5]];portConstraint=eastwest;" vertex="1" parent="5-M_Rkz2rhJY8XIJQXvp-105">
          <mxGeometry y="135" width="180" height="53" as="geometry" />
        </mxCell>
        <mxCell id="5-M_Rkz2rhJY8XIJQXvp-111" value="FK_Applications_JobID: INT" style="shape=partialRectangle;html=1;whiteSpace=wrap;connectable=0;strokeColor=inherit;overflow=hidden;fillColor=none;top=0;left=0;bottom=0;right=0;pointerEvents=1;" vertex="1" parent="5-M_Rkz2rhJY8XIJQXvp-110">
          <mxGeometry width="180" height="53" as="geometry">
            <mxRectangle width="180" height="53" as="alternateBounds" />
          </mxGeometry>
        </mxCell>
        <mxCell id="5-M_Rkz2rhJY8XIJQXvp-112" value="" style="shape=tableRow;horizontal=0;startSize=0;swimlaneHead=0;swimlaneBody=0;strokeColor=inherit;top=0;left=0;bottom=0;right=0;collapsible=0;dropTarget=0;fillColor=none;points=[[0,0.5],[1,0.5]];portConstraint=eastwest;" vertex="1" parent="5-M_Rkz2rhJY8XIJQXvp-105">
          <mxGeometry y="188" width="180" height="52" as="geometry" />
        </mxCell>
        <mxCell id="5-M_Rkz2rhJY8XIJQXvp-113" value="Status:&amp;nbsp;ENUM(&#39;Applied&#39;, &#39;Interview&#39;, &#39;Hired&#39;, &#39;Rejected&#39;),&amp;nbsp;NOT NULL" style="shape=partialRectangle;html=1;whiteSpace=wrap;connectable=0;strokeColor=inherit;overflow=hidden;fillColor=none;top=0;left=0;bottom=0;right=0;pointerEvents=1;" vertex="1" parent="5-M_Rkz2rhJY8XIJQXvp-112">
          <mxGeometry width="180" height="52" as="geometry">
            <mxRectangle width="180" height="52" as="alternateBounds" />
          </mxGeometry>
        </mxCell>
        <mxCell id="5-M_Rkz2rhJY8XIJQXvp-114" value="Skills" style="shape=table;startSize=40;container=1;collapsible=0;childLayout=tableLayout;fillColor=#dae8fc;strokeColor=#6c8ebf;" vertex="1" parent="1">
          <mxGeometry x="-40" y="675" width="160" height="110" as="geometry" />
        </mxCell>
        <mxCell id="5-M_Rkz2rhJY8XIJQXvp-115" value="" style="shape=tableRow;horizontal=0;startSize=0;swimlaneHead=0;swimlaneBody=0;strokeColor=inherit;top=0;left=0;bottom=0;right=0;collapsible=0;dropTarget=0;fillColor=none;points=[[0,0.5],[1,0.5]];portConstraint=eastwest;" vertex="1" parent="5-M_Rkz2rhJY8XIJQXvp-114">
          <mxGeometry y="40" width="160" height="35" as="geometry" />
        </mxCell>
        <mxCell id="5-M_Rkz2rhJY8XIJQXvp-116" value="PK_Skills_SkillID: INT,AUTO_INCREMENT" style="shape=partialRectangle;html=1;whiteSpace=wrap;connectable=0;strokeColor=inherit;overflow=hidden;fillColor=none;top=0;left=0;bottom=0;right=0;pointerEvents=1;" vertex="1" parent="5-M_Rkz2rhJY8XIJQXvp-115">
          <mxGeometry width="160" height="35" as="geometry">
            <mxRectangle width="160" height="35" as="alternateBounds" />
          </mxGeometry>
        </mxCell>
        <mxCell id="5-M_Rkz2rhJY8XIJQXvp-117" value="" style="shape=tableRow;horizontal=0;startSize=0;swimlaneHead=0;swimlaneBody=0;strokeColor=inherit;top=0;left=0;bottom=0;right=0;collapsible=0;dropTarget=0;fillColor=none;points=[[0,0.5],[1,0.5]];portConstraint=eastwest;" vertex="1" parent="5-M_Rkz2rhJY8XIJQXvp-114">
          <mxGeometry y="75" width="160" height="35" as="geometry" />
        </mxCell>
        <mxCell id="5-M_Rkz2rhJY8XIJQXvp-118" value="SkillName: VARCHAR(100),&amp;nbsp;NOT NULL" style="shape=partialRectangle;html=1;whiteSpace=wrap;connectable=0;strokeColor=inherit;overflow=hidden;fillColor=none;top=0;left=0;bottom=0;right=0;pointerEvents=1;" vertex="1" parent="5-M_Rkz2rhJY8XIJQXvp-117">
          <mxGeometry width="160" height="35" as="geometry">
            <mxRectangle width="160" height="35" as="alternateBounds" />
          </mxGeometry>
        </mxCell>
        <mxCell id="5-M_Rkz2rhJY8XIJQXvp-119" value="" style="shape=table;startSize=0;container=1;collapsible=0;childLayout=tableLayout;" vertex="1" parent="1">
          <mxGeometry x="230" y="670" width="180" height="120" as="geometry" />
        </mxCell>
        <mxCell id="5-M_Rkz2rhJY8XIJQXvp-120" value="" style="shape=tableRow;horizontal=0;startSize=0;swimlaneHead=0;swimlaneBody=0;strokeColor=inherit;top=0;left=0;bottom=0;right=0;collapsible=0;dropTarget=0;fillColor=none;points=[[0,0.5],[1,0.5]];portConstraint=eastwest;" vertex="1" parent="5-M_Rkz2rhJY8XIJQXvp-119">
          <mxGeometry width="180" height="40" as="geometry" />
        </mxCell>
        <mxCell id="5-M_Rkz2rhJY8XIJQXvp-121" value="CandidateSkills" style="shape=partialRectangle;html=1;whiteSpace=wrap;connectable=0;strokeColor=#6c8ebf;overflow=hidden;fillColor=#dae8fc;top=0;left=0;bottom=0;right=0;pointerEvents=1;" vertex="1" parent="5-M_Rkz2rhJY8XIJQXvp-120">
          <mxGeometry width="180" height="40" as="geometry">
            <mxRectangle width="180" height="40" as="alternateBounds" />
          </mxGeometry>
        </mxCell>
        <mxCell id="5-M_Rkz2rhJY8XIJQXvp-122" value="" style="shape=tableRow;horizontal=0;startSize=0;swimlaneHead=0;swimlaneBody=0;strokeColor=inherit;top=0;left=0;bottom=0;right=0;collapsible=0;dropTarget=0;fillColor=none;points=[[0,0.5],[1,0.5]];portConstraint=eastwest;" vertex="1" parent="5-M_Rkz2rhJY8XIJQXvp-119">
          <mxGeometry y="40" width="180" height="40" as="geometry" />
        </mxCell>
        <mxCell id="5-M_Rkz2rhJY8XIJQXvp-123" value="FK_CandidateSkills_CandidateID:&lt;div&gt;INT&lt;/div&gt;" style="shape=partialRectangle;html=1;whiteSpace=wrap;connectable=0;strokeColor=inherit;overflow=hidden;fillColor=none;top=0;left=0;bottom=0;right=0;pointerEvents=1;" vertex="1" parent="5-M_Rkz2rhJY8XIJQXvp-122">
          <mxGeometry width="180" height="40" as="geometry">
            <mxRectangle width="180" height="40" as="alternateBounds" />
          </mxGeometry>
        </mxCell>
        <mxCell id="5-M_Rkz2rhJY8XIJQXvp-124" value="" style="shape=tableRow;horizontal=0;startSize=0;swimlaneHead=0;swimlaneBody=0;strokeColor=inherit;top=0;left=0;bottom=0;right=0;collapsible=0;dropTarget=0;fillColor=none;points=[[0,0.5],[1,0.5]];portConstraint=eastwest;" vertex="1" parent="5-M_Rkz2rhJY8XIJQXvp-119">
          <mxGeometry y="80" width="180" height="40" as="geometry" />
        </mxCell>
        <mxCell id="5-M_Rkz2rhJY8XIJQXvp-125" value="FK_CandidateSkills_SkillID:&lt;div&gt;INT&lt;/div&gt;" style="shape=partialRectangle;html=1;whiteSpace=wrap;connectable=0;strokeColor=inherit;overflow=hidden;fillColor=none;top=0;left=0;bottom=0;right=0;pointerEvents=1;" vertex="1" parent="5-M_Rkz2rhJY8XIJQXvp-124">
          <mxGeometry width="180" height="40" as="geometry">
            <mxRectangle width="180" height="40" as="alternateBounds" />
          </mxGeometry>
        </mxCell>
        <mxCell id="5-M_Rkz2rhJY8XIJQXvp-126" value="" style="shape=table;startSize=0;container=1;collapsible=0;childLayout=tableLayout;fillColor=#dae8fc;strokeColor=#000000;" vertex="1" parent="1">
          <mxGeometry x="181" y="400" width="190" height="130" as="geometry" />
        </mxCell>
        <mxCell id="5-M_Rkz2rhJY8XIJQXvp-127" value="" style="shape=tableRow;horizontal=0;startSize=0;swimlaneHead=0;swimlaneBody=0;strokeColor=inherit;top=0;left=0;bottom=0;right=0;collapsible=0;dropTarget=0;fillColor=none;points=[[0,0.5],[1,0.5]];portConstraint=eastwest;" vertex="1" parent="5-M_Rkz2rhJY8XIJQXvp-126">
          <mxGeometry width="190" height="43" as="geometry" />
        </mxCell>
        <mxCell id="5-M_Rkz2rhJY8XIJQXvp-128" value="Categories" style="shape=partialRectangle;html=1;whiteSpace=wrap;connectable=0;strokeColor=inherit;overflow=hidden;fillColor=none;top=0;left=0;bottom=0;right=0;pointerEvents=1;" vertex="1" parent="5-M_Rkz2rhJY8XIJQXvp-127">
          <mxGeometry width="190" height="43" as="geometry">
            <mxRectangle width="190" height="43" as="alternateBounds" />
          </mxGeometry>
        </mxCell>
        <mxCell id="5-M_Rkz2rhJY8XIJQXvp-129" value="" style="shape=tableRow;horizontal=0;startSize=0;swimlaneHead=0;swimlaneBody=0;strokeColor=inherit;top=0;left=0;bottom=0;right=0;collapsible=0;dropTarget=0;fillColor=none;points=[[0,0.5],[1,0.5]];portConstraint=eastwest;" vertex="1" parent="5-M_Rkz2rhJY8XIJQXvp-126">
          <mxGeometry y="43" width="190" height="44" as="geometry" />
        </mxCell>
        <mxCell id="5-M_Rkz2rhJY8XIJQXvp-130" value="PK_Categories_CategoriesID: INT,&amp;nbsp;AUTO_INCREMENT" style="shape=partialRectangle;html=1;whiteSpace=wrap;connectable=0;overflow=hidden;top=0;left=0;bottom=0;right=0;pointerEvents=1;" vertex="1" parent="5-M_Rkz2rhJY8XIJQXvp-129">
          <mxGeometry width="190" height="44" as="geometry">
            <mxRectangle width="190" height="44" as="alternateBounds" />
          </mxGeometry>
        </mxCell>
        <mxCell id="5-M_Rkz2rhJY8XIJQXvp-131" value="" style="shape=tableRow;horizontal=0;startSize=0;swimlaneHead=0;swimlaneBody=0;strokeColor=inherit;top=0;left=0;bottom=0;right=0;collapsible=0;dropTarget=0;fillColor=none;points=[[0,0.5],[1,0.5]];portConstraint=eastwest;" vertex="1" parent="5-M_Rkz2rhJY8XIJQXvp-126">
          <mxGeometry y="87" width="190" height="43" as="geometry" />
        </mxCell>
        <mxCell id="5-M_Rkz2rhJY8XIJQXvp-132" value="CategoryName: VARCHAR(100),&amp;nbsp;NOT NULL" style="shape=partialRectangle;html=1;whiteSpace=wrap;connectable=0;overflow=hidden;top=0;left=0;bottom=0;right=0;pointerEvents=1;" vertex="1" parent="5-M_Rkz2rhJY8XIJQXvp-131">
          <mxGeometry width="190" height="43" as="geometry">
            <mxRectangle width="190" height="43" as="alternateBounds" />
          </mxGeometry>
        </mxCell>
        <mxCell id="5-M_Rkz2rhJY8XIJQXvp-133" value="" style="shape=table;startSize=0;container=1;collapsible=0;childLayout=tableLayout;" vertex="1" parent="1">
          <mxGeometry x="171" y="40" width="210" height="140" as="geometry" />
        </mxCell>
        <mxCell id="5-M_Rkz2rhJY8XIJQXvp-134" value="" style="shape=tableRow;horizontal=0;startSize=0;swimlaneHead=0;swimlaneBody=0;strokeColor=inherit;top=0;left=0;bottom=0;right=0;collapsible=0;dropTarget=0;fillColor=none;points=[[0,0.5],[1,0.5]];portConstraint=eastwest;" vertex="1" parent="5-M_Rkz2rhJY8XIJQXvp-133">
          <mxGeometry width="210" height="47" as="geometry" />
        </mxCell>
        <mxCell id="5-M_Rkz2rhJY8XIJQXvp-135" value="JobCategories" style="shape=partialRectangle;html=1;whiteSpace=wrap;connectable=0;strokeColor=#6c8ebf;overflow=hidden;fillColor=#dae8fc;top=0;left=0;bottom=0;right=0;pointerEvents=1;" vertex="1" parent="5-M_Rkz2rhJY8XIJQXvp-134">
          <mxGeometry width="210" height="47" as="geometry">
            <mxRectangle width="210" height="47" as="alternateBounds" />
          </mxGeometry>
        </mxCell>
        <mxCell id="5-M_Rkz2rhJY8XIJQXvp-136" value="" style="shape=tableRow;horizontal=0;startSize=0;swimlaneHead=0;swimlaneBody=0;strokeColor=inherit;top=0;left=0;bottom=0;right=0;collapsible=0;dropTarget=0;fillColor=none;points=[[0,0.5],[1,0.5]];portConstraint=eastwest;" vertex="1" parent="5-M_Rkz2rhJY8XIJQXvp-133">
          <mxGeometry y="47" width="210" height="46" as="geometry" />
        </mxCell>
        <mxCell id="5-M_Rkz2rhJY8XIJQXvp-137" value="FK_JobCategories_JobID: INT" style="shape=partialRectangle;html=1;whiteSpace=wrap;connectable=0;strokeColor=inherit;overflow=hidden;fillColor=none;top=0;left=0;bottom=0;right=0;pointerEvents=1;" vertex="1" parent="5-M_Rkz2rhJY8XIJQXvp-136">
          <mxGeometry width="210" height="46" as="geometry">
            <mxRectangle width="210" height="46" as="alternateBounds" />
          </mxGeometry>
        </mxCell>
        <mxCell id="5-M_Rkz2rhJY8XIJQXvp-138" value="" style="shape=tableRow;horizontal=0;startSize=0;swimlaneHead=0;swimlaneBody=0;strokeColor=inherit;top=0;left=0;bottom=0;right=0;collapsible=0;dropTarget=0;fillColor=none;points=[[0,0.5],[1,0.5]];portConstraint=eastwest;" vertex="1" parent="5-M_Rkz2rhJY8XIJQXvp-133">
          <mxGeometry y="93" width="210" height="47" as="geometry" />
        </mxCell>
        <mxCell id="5-M_Rkz2rhJY8XIJQXvp-139" value="FK_JobCategories_CategoriesID:&lt;div&gt;INT&lt;/div&gt;" style="shape=partialRectangle;html=1;whiteSpace=wrap;connectable=0;strokeColor=inherit;overflow=hidden;fillColor=none;top=0;left=0;bottom=0;right=0;pointerEvents=1;" vertex="1" parent="5-M_Rkz2rhJY8XIJQXvp-138">
          <mxGeometry width="210" height="47" as="geometry">
            <mxRectangle width="210" height="47" as="alternateBounds" />
          </mxGeometry>
        </mxCell>
        <mxCell id="5-M_Rkz2rhJY8XIJQXvp-140" value="" style="shape=table;startSize=0;container=1;collapsible=0;childLayout=tableLayout;" vertex="1" parent="1">
          <mxGeometry x="-40" y="360" width="180" height="160" as="geometry" />
        </mxCell>
        <mxCell id="5-M_Rkz2rhJY8XIJQXvp-141" value="" style="shape=tableRow;horizontal=0;startSize=0;swimlaneHead=0;swimlaneBody=0;strokeColor=inherit;top=0;left=0;bottom=0;right=0;collapsible=0;dropTarget=0;fillColor=none;points=[[0,0.5],[1,0.5]];portConstraint=eastwest;" vertex="1" parent="5-M_Rkz2rhJY8XIJQXvp-140">
          <mxGeometry width="180" height="40" as="geometry" />
        </mxCell>
        <mxCell id="5-M_Rkz2rhJY8XIJQXvp-142" value="&#xa;Locations&#xa;&#xa;" style="shape=partialRectangle;html=1;whiteSpace=wrap;connectable=0;strokeColor=#6c8ebf;overflow=hidden;fillColor=#dae8fc;top=0;left=0;bottom=0;right=0;pointerEvents=1;" vertex="1" parent="5-M_Rkz2rhJY8XIJQXvp-141">
          <mxGeometry width="180" height="40" as="geometry">
            <mxRectangle width="180" height="40" as="alternateBounds" />
          </mxGeometry>
        </mxCell>
        <mxCell id="5-M_Rkz2rhJY8XIJQXvp-143" value="" style="shape=tableRow;horizontal=0;startSize=0;swimlaneHead=0;swimlaneBody=0;strokeColor=inherit;top=0;left=0;bottom=0;right=0;collapsible=0;dropTarget=0;fillColor=none;points=[[0,0.5],[1,0.5]];portConstraint=eastwest;" vertex="1" parent="5-M_Rkz2rhJY8XIJQXvp-140">
          <mxGeometry y="40" width="180" height="40" as="geometry" />
        </mxCell>
        <mxCell id="5-M_Rkz2rhJY8XIJQXvp-144" value="PK_Locations_LocationID:&lt;div&gt;INT,&amp;nbsp;AUTO_INCREMENT&lt;/div&gt;" style="shape=partialRectangle;html=1;whiteSpace=wrap;connectable=0;strokeColor=inherit;overflow=hidden;fillColor=none;top=0;left=0;bottom=0;right=0;pointerEvents=1;" vertex="1" parent="5-M_Rkz2rhJY8XIJQXvp-143">
          <mxGeometry width="180" height="40" as="geometry">
            <mxRectangle width="180" height="40" as="alternateBounds" />
          </mxGeometry>
        </mxCell>
        <mxCell id="5-M_Rkz2rhJY8XIJQXvp-145" value="" style="shape=tableRow;horizontal=0;startSize=0;swimlaneHead=0;swimlaneBody=0;strokeColor=inherit;top=0;left=0;bottom=0;right=0;collapsible=0;dropTarget=0;fillColor=none;points=[[0,0.5],[1,0.5]];portConstraint=eastwest;" vertex="1" parent="5-M_Rkz2rhJY8XIJQXvp-140">
          <mxGeometry y="80" width="180" height="40" as="geometry" />
        </mxCell>
        <mxCell id="5-M_Rkz2rhJY8XIJQXvp-146" value="Country: VARCHAR (100),&amp;nbsp;&lt;table&gt;&lt;tbody&gt;&lt;tr&gt;&lt;td&gt;&lt;/td&gt;&lt;/tr&gt;&lt;/tbody&gt;&lt;/table&gt;&lt;table&gt;&lt;tbody&gt;&lt;tr&gt;&lt;td&gt;NOT NULL&lt;/td&gt;&lt;/tr&gt;&lt;/tbody&gt;&lt;/table&gt;" style="shape=partialRectangle;html=1;whiteSpace=wrap;connectable=0;strokeColor=inherit;overflow=hidden;fillColor=none;top=0;left=0;bottom=0;right=0;pointerEvents=1;" vertex="1" parent="5-M_Rkz2rhJY8XIJQXvp-145">
          <mxGeometry width="180" height="40" as="geometry">
            <mxRectangle width="180" height="40" as="alternateBounds" />
          </mxGeometry>
        </mxCell>
        <mxCell id="5-M_Rkz2rhJY8XIJQXvp-147" value="" style="shape=tableRow;horizontal=0;startSize=0;swimlaneHead=0;swimlaneBody=0;strokeColor=inherit;top=0;left=0;bottom=0;right=0;collapsible=0;dropTarget=0;fillColor=none;points=[[0,0.5],[1,0.5]];portConstraint=eastwest;" vertex="1" parent="5-M_Rkz2rhJY8XIJQXvp-140">
          <mxGeometry y="120" width="180" height="40" as="geometry" />
        </mxCell>
        <mxCell id="5-M_Rkz2rhJY8XIJQXvp-148" value="City: VARCHAR (100),&amp;nbsp;&lt;table&gt;&lt;tbody&gt;&lt;tr&gt;&lt;td&gt;&lt;/td&gt;&lt;/tr&gt;&lt;/tbody&gt;&lt;/table&gt;&lt;table&gt;&lt;tbody&gt;&lt;tr&gt;&lt;td&gt;NOT NULL&lt;/td&gt;&lt;/tr&gt;&lt;/tbody&gt;&lt;/table&gt;" style="shape=partialRectangle;html=1;whiteSpace=wrap;connectable=0;strokeColor=inherit;overflow=hidden;fillColor=none;top=0;left=0;bottom=0;right=0;pointerEvents=1;" vertex="1" parent="5-M_Rkz2rhJY8XIJQXvp-147">
          <mxGeometry width="180" height="40" as="geometry">
            <mxRectangle width="180" height="40" as="alternateBounds" />
          </mxGeometry>
        </mxCell>
        <mxCell id="5-M_Rkz2rhJY8XIJQXvp-149" value="" style="shape=table;startSize=0;container=1;collapsible=0;childLayout=tableLayout;" vertex="1" parent="1">
          <mxGeometry x="450" y="650" width="170" height="120" as="geometry" />
        </mxCell>
        <mxCell id="5-M_Rkz2rhJY8XIJQXvp-150" value="" style="shape=tableRow;horizontal=0;startSize=0;swimlaneHead=0;swimlaneBody=0;strokeColor=inherit;top=0;left=0;bottom=0;right=0;collapsible=0;dropTarget=0;fillColor=none;points=[[0,0.5],[1,0.5]];portConstraint=eastwest;" vertex="1" parent="5-M_Rkz2rhJY8XIJQXvp-149">
          <mxGeometry width="170" height="40" as="geometry" />
        </mxCell>
        <mxCell id="5-M_Rkz2rhJY8XIJQXvp-151" value="JobLocations" style="shape=partialRectangle;html=1;whiteSpace=wrap;connectable=0;strokeColor=#6c8ebf;overflow=hidden;fillColor=#dae8fc;top=0;left=0;bottom=0;right=0;pointerEvents=1;" vertex="1" parent="5-M_Rkz2rhJY8XIJQXvp-150">
          <mxGeometry width="170" height="40" as="geometry">
            <mxRectangle width="170" height="40" as="alternateBounds" />
          </mxGeometry>
        </mxCell>
        <mxCell id="5-M_Rkz2rhJY8XIJQXvp-152" value="" style="shape=tableRow;horizontal=0;startSize=0;swimlaneHead=0;swimlaneBody=0;strokeColor=inherit;top=0;left=0;bottom=0;right=0;collapsible=0;dropTarget=0;fillColor=none;points=[[0,0.5],[1,0.5]];portConstraint=eastwest;" vertex="1" parent="5-M_Rkz2rhJY8XIJQXvp-149">
          <mxGeometry y="40" width="170" height="40" as="geometry" />
        </mxCell>
        <mxCell id="5-M_Rkz2rhJY8XIJQXvp-153" value="FK_JobLocations_JobID:&lt;div&gt;INT&lt;/div&gt;" style="shape=partialRectangle;html=1;whiteSpace=wrap;connectable=0;strokeColor=inherit;overflow=hidden;fillColor=none;top=0;left=0;bottom=0;right=0;pointerEvents=1;" vertex="1" parent="5-M_Rkz2rhJY8XIJQXvp-152">
          <mxGeometry width="170" height="40" as="geometry">
            <mxRectangle width="170" height="40" as="alternateBounds" />
          </mxGeometry>
        </mxCell>
        <mxCell id="5-M_Rkz2rhJY8XIJQXvp-154" value="" style="shape=tableRow;horizontal=0;startSize=0;swimlaneHead=0;swimlaneBody=0;strokeColor=inherit;top=0;left=0;bottom=0;right=0;collapsible=0;dropTarget=0;fillColor=none;points=[[0,0.5],[1,0.5]];portConstraint=eastwest;" vertex="1" parent="5-M_Rkz2rhJY8XIJQXvp-149">
          <mxGeometry y="80" width="170" height="40" as="geometry" />
        </mxCell>
        <mxCell id="5-M_Rkz2rhJY8XIJQXvp-155" value="FK_JobLocations_LocationID:&lt;div&gt;INT&lt;/div&gt;" style="shape=partialRectangle;html=1;whiteSpace=wrap;connectable=0;strokeColor=inherit;overflow=hidden;fillColor=none;top=0;left=0;bottom=0;right=0;pointerEvents=1;" vertex="1" parent="5-M_Rkz2rhJY8XIJQXvp-154">
          <mxGeometry width="170" height="40" as="geometry">
            <mxRectangle width="170" height="40" as="alternateBounds" />
          </mxGeometry>
        </mxCell>
        <mxCell id="5-M_Rkz2rhJY8XIJQXvp-156" value="" style="shape=table;startSize=0;container=1;collapsible=0;childLayout=tableLayout;" vertex="1" parent="1">
          <mxGeometry x="650" y="330" width="180" height="270" as="geometry" />
        </mxCell>
        <mxCell id="5-M_Rkz2rhJY8XIJQXvp-157" value="" style="shape=tableRow;horizontal=0;startSize=0;swimlaneHead=0;swimlaneBody=0;strokeColor=inherit;top=0;left=0;bottom=0;right=0;collapsible=0;dropTarget=0;fillColor=none;points=[[0,0.5],[1,0.5]];portConstraint=eastwest;" vertex="1" parent="5-M_Rkz2rhJY8XIJQXvp-156">
          <mxGeometry width="180" height="45" as="geometry" />
        </mxCell>
        <mxCell id="5-M_Rkz2rhJY8XIJQXvp-158" value="Interviews" style="shape=partialRectangle;html=1;whiteSpace=wrap;connectable=0;strokeColor=#6c8ebf;overflow=hidden;fillColor=#dae8fc;top=0;left=0;bottom=0;right=0;pointerEvents=1;" vertex="1" parent="5-M_Rkz2rhJY8XIJQXvp-157">
          <mxGeometry width="180" height="45" as="geometry">
            <mxRectangle width="180" height="45" as="alternateBounds" />
          </mxGeometry>
        </mxCell>
        <mxCell id="5-M_Rkz2rhJY8XIJQXvp-159" value="" style="shape=tableRow;horizontal=0;startSize=0;swimlaneHead=0;swimlaneBody=0;strokeColor=inherit;top=0;left=0;bottom=0;right=0;collapsible=0;dropTarget=0;fillColor=none;points=[[0,0.5],[1,0.5]];portConstraint=eastwest;" vertex="1" parent="5-M_Rkz2rhJY8XIJQXvp-156">
          <mxGeometry y="45" width="180" height="45" as="geometry" />
        </mxCell>
        <mxCell id="5-M_Rkz2rhJY8XIJQXvp-160" value="PK_Interviews_InterviewID:&lt;div&gt;INT,&amp;nbsp;AUTO_INCREMENT&lt;/div&gt;" style="shape=partialRectangle;html=1;whiteSpace=wrap;connectable=0;strokeColor=inherit;overflow=hidden;fillColor=none;top=0;left=0;bottom=0;right=0;pointerEvents=1;" vertex="1" parent="5-M_Rkz2rhJY8XIJQXvp-159">
          <mxGeometry width="180" height="45" as="geometry">
            <mxRectangle width="180" height="45" as="alternateBounds" />
          </mxGeometry>
        </mxCell>
        <mxCell id="5-M_Rkz2rhJY8XIJQXvp-161" value="" style="shape=tableRow;horizontal=0;startSize=0;swimlaneHead=0;swimlaneBody=0;strokeColor=inherit;top=0;left=0;bottom=0;right=0;collapsible=0;dropTarget=0;fillColor=none;points=[[0,0.5],[1,0.5]];portConstraint=eastwest;" vertex="1" parent="5-M_Rkz2rhJY8XIJQXvp-156">
          <mxGeometry y="90" width="180" height="45" as="geometry" />
        </mxCell>
        <mxCell id="5-M_Rkz2rhJY8XIJQXvp-162" value="FK_Interviews_ApplicationID:&lt;div&gt;INT&lt;/div&gt;" style="shape=partialRectangle;html=1;whiteSpace=wrap;connectable=0;strokeColor=inherit;overflow=hidden;fillColor=none;top=0;left=0;bottom=0;right=0;pointerEvents=1;" vertex="1" parent="5-M_Rkz2rhJY8XIJQXvp-161">
          <mxGeometry width="180" height="45" as="geometry">
            <mxRectangle width="180" height="45" as="alternateBounds" />
          </mxGeometry>
        </mxCell>
        <mxCell id="5-M_Rkz2rhJY8XIJQXvp-163" value="" style="shape=tableRow;horizontal=0;startSize=0;swimlaneHead=0;swimlaneBody=0;strokeColor=inherit;top=0;left=0;bottom=0;right=0;collapsible=0;dropTarget=0;fillColor=none;points=[[0,0.5],[1,0.5]];portConstraint=eastwest;" vertex="1" parent="5-M_Rkz2rhJY8XIJQXvp-156">
          <mxGeometry y="135" width="180" height="45" as="geometry" />
        </mxCell>
        <mxCell id="5-M_Rkz2rhJY8XIJQXvp-164" value="InterviewDate: DATETIME,&amp;nbsp;NOT NULL" style="shape=partialRectangle;html=1;whiteSpace=wrap;connectable=0;strokeColor=inherit;overflow=hidden;fillColor=none;top=0;left=0;bottom=0;right=0;pointerEvents=1;" vertex="1" parent="5-M_Rkz2rhJY8XIJQXvp-163">
          <mxGeometry width="180" height="45" as="geometry">
            <mxRectangle width="180" height="45" as="alternateBounds" />
          </mxGeometry>
        </mxCell>
        <mxCell id="5-M_Rkz2rhJY8XIJQXvp-165" value="" style="shape=tableRow;horizontal=0;startSize=0;swimlaneHead=0;swimlaneBody=0;strokeColor=inherit;top=0;left=0;bottom=0;right=0;collapsible=0;dropTarget=0;fillColor=none;points=[[0,0.5],[1,0.5]];portConstraint=eastwest;" vertex="1" parent="5-M_Rkz2rhJY8XIJQXvp-156">
          <mxGeometry y="180" width="180" height="45" as="geometry" />
        </mxCell>
        <mxCell id="5-M_Rkz2rhJY8XIJQXvp-166" value="Interviewer:&lt;div&gt;VARCHAR(100),&amp;nbsp;NOT NULL&lt;/div&gt;" style="shape=partialRectangle;html=1;whiteSpace=wrap;connectable=0;strokeColor=inherit;overflow=hidden;fillColor=none;top=0;left=0;bottom=0;right=0;pointerEvents=1;" vertex="1" parent="5-M_Rkz2rhJY8XIJQXvp-165">
          <mxGeometry width="180" height="45" as="geometry">
            <mxRectangle width="180" height="45" as="alternateBounds" />
          </mxGeometry>
        </mxCell>
        <mxCell id="5-M_Rkz2rhJY8XIJQXvp-167" value="" style="shape=tableRow;horizontal=0;startSize=0;swimlaneHead=0;swimlaneBody=0;strokeColor=inherit;top=0;left=0;bottom=0;right=0;collapsible=0;dropTarget=0;fillColor=none;points=[[0,0.5],[1,0.5]];portConstraint=eastwest;" vertex="1" parent="5-M_Rkz2rhJY8XIJQXvp-156">
          <mxGeometry y="225" width="180" height="45" as="geometry" />
        </mxCell>
        <mxCell id="5-M_Rkz2rhJY8XIJQXvp-168" value="Result:&lt;div&gt;ENUM(&#39;Pending&#39;, &#39;Passed&#39;, &#39;Failed&#39;),&amp;nbsp;NULLABLE&lt;/div&gt;" style="shape=partialRectangle;html=1;whiteSpace=wrap;connectable=0;strokeColor=inherit;overflow=hidden;fillColor=none;top=0;left=0;bottom=0;right=0;pointerEvents=1;" vertex="1" parent="5-M_Rkz2rhJY8XIJQXvp-167">
          <mxGeometry width="180" height="45" as="geometry">
            <mxRectangle width="180" height="45" as="alternateBounds" />
          </mxGeometry>
        </mxCell>
        <mxCell id="5-M_Rkz2rhJY8XIJQXvp-169" value="" style="shape=table;startSize=0;container=1;collapsible=0;childLayout=tableLayout;" vertex="1" parent="1">
          <mxGeometry x="650" y="640" width="180" height="180" as="geometry" />
        </mxCell>
        <mxCell id="5-M_Rkz2rhJY8XIJQXvp-170" value="" style="shape=tableRow;horizontal=0;startSize=0;swimlaneHead=0;swimlaneBody=0;strokeColor=inherit;top=0;left=0;bottom=0;right=0;collapsible=0;dropTarget=0;fillColor=none;points=[[0,0.5],[1,0.5]];portConstraint=eastwest;" vertex="1" parent="5-M_Rkz2rhJY8XIJQXvp-169">
          <mxGeometry width="180" height="40" as="geometry" />
        </mxCell>
        <mxCell id="5-M_Rkz2rhJY8XIJQXvp-171" value="JobBenefits" style="shape=partialRectangle;html=1;whiteSpace=wrap;connectable=0;strokeColor=#6c8ebf;overflow=hidden;fillColor=#dae8fc;top=0;left=0;bottom=0;right=0;pointerEvents=1;" vertex="1" parent="5-M_Rkz2rhJY8XIJQXvp-170">
          <mxGeometry width="180" height="40" as="geometry">
            <mxRectangle width="180" height="40" as="alternateBounds" />
          </mxGeometry>
        </mxCell>
        <mxCell id="5-M_Rkz2rhJY8XIJQXvp-172" value="" style="shape=tableRow;horizontal=0;startSize=0;swimlaneHead=0;swimlaneBody=0;strokeColor=inherit;top=0;left=0;bottom=0;right=0;collapsible=0;dropTarget=0;fillColor=none;points=[[0,0.5],[1,0.5]];portConstraint=eastwest;" vertex="1" parent="5-M_Rkz2rhJY8XIJQXvp-169">
          <mxGeometry y="40" width="180" height="40" as="geometry" />
        </mxCell>
        <mxCell id="5-M_Rkz2rhJY8XIJQXvp-173" value="PK_JobBenefits_BenefitID:&lt;div&gt;INT,&amp;nbsp; AUTO_INCREMENT&lt;/div&gt;" style="shape=partialRectangle;html=1;whiteSpace=wrap;connectable=0;strokeColor=inherit;overflow=hidden;fillColor=none;top=0;left=0;bottom=0;right=0;pointerEvents=1;" vertex="1" parent="5-M_Rkz2rhJY8XIJQXvp-172">
          <mxGeometry width="180" height="40" as="geometry">
            <mxRectangle width="180" height="40" as="alternateBounds" />
          </mxGeometry>
        </mxCell>
        <mxCell id="5-M_Rkz2rhJY8XIJQXvp-174" value="" style="shape=tableRow;horizontal=0;startSize=0;swimlaneHead=0;swimlaneBody=0;strokeColor=inherit;top=0;left=0;bottom=0;right=0;collapsible=0;dropTarget=0;fillColor=none;points=[[0,0.5],[1,0.5]];portConstraint=eastwest;" vertex="1" parent="5-M_Rkz2rhJY8XIJQXvp-169">
          <mxGeometry y="80" width="180" height="40" as="geometry" />
        </mxCell>
        <mxCell id="5-M_Rkz2rhJY8XIJQXvp-175" value="FK_JobBenefits_JobID:&lt;div&gt;INT&lt;/div&gt;" style="shape=partialRectangle;html=1;whiteSpace=wrap;connectable=0;strokeColor=inherit;overflow=hidden;fillColor=none;top=0;left=0;bottom=0;right=0;pointerEvents=1;" vertex="1" parent="5-M_Rkz2rhJY8XIJQXvp-174">
          <mxGeometry width="180" height="40" as="geometry">
            <mxRectangle width="180" height="40" as="alternateBounds" />
          </mxGeometry>
        </mxCell>
        <mxCell id="5-M_Rkz2rhJY8XIJQXvp-176" value="" style="shape=tableRow;horizontal=0;startSize=0;swimlaneHead=0;swimlaneBody=0;strokeColor=inherit;top=0;left=0;bottom=0;right=0;collapsible=0;dropTarget=0;fillColor=none;points=[[0,0.5],[1,0.5]];portConstraint=eastwest;" vertex="1" parent="5-M_Rkz2rhJY8XIJQXvp-169">
          <mxGeometry y="120" width="180" height="60" as="geometry" />
        </mxCell>
        <mxCell id="5-M_Rkz2rhJY8XIJQXvp-177" value="BenefitDescription:&lt;div&gt;VARCHAR(255),&amp;nbsp;&lt;/div&gt;&lt;table&gt;&lt;tbody&gt;&lt;tr&gt;&lt;td&gt;&lt;/td&gt;&lt;/tr&gt;&lt;/tbody&gt;&lt;/table&gt;&lt;table&gt;&lt;tbody&gt;&lt;tr&gt;&lt;td&gt;NOT NULL&lt;/td&gt;&lt;/tr&gt;&lt;/tbody&gt;&lt;/table&gt;" style="shape=partialRectangle;html=1;whiteSpace=wrap;connectable=0;strokeColor=inherit;overflow=hidden;fillColor=none;top=0;left=0;bottom=0;right=0;pointerEvents=1;" vertex="1" parent="5-M_Rkz2rhJY8XIJQXvp-176">
          <mxGeometry width="180" height="60" as="geometry">
            <mxRectangle width="180" height="60" as="alternateBounds" />
          </mxGeometry>
        </mxCell>
        <mxCell id="5-M_Rkz2rhJY8XIJQXvp-180" value="" style="endArrow=classic;html=1;rounded=0;entryX=0.5;entryY=0;entryDx=0;entryDy=0;" edge="1" parent="1" target="5-M_Rkz2rhJY8XIJQXvp-140">
          <mxGeometry relative="1" as="geometry">
            <mxPoint x="50" y="261" as="sourcePoint" />
            <mxPoint x="120" y="280" as="targetPoint" />
          </mxGeometry>
        </mxCell>
        <mxCell id="5-M_Rkz2rhJY8XIJQXvp-185" value="" style="endArrow=classic;html=1;rounded=0;entryX=0.5;entryY=0;entryDx=0;entryDy=0;" edge="1" parent="1" target="5-M_Rkz2rhJY8XIJQXvp-114">
          <mxGeometry relative="1" as="geometry">
            <mxPoint x="40" y="530" as="sourcePoint" />
            <mxPoint x="80" y="560" as="targetPoint" />
          </mxGeometry>
        </mxCell>
        <mxCell id="5-M_Rkz2rhJY8XIJQXvp-187" value="" style="endArrow=classic;html=1;rounded=0;entryX=-0.022;entryY=0.305;entryDx=0;entryDy=0;entryPerimeter=0;exitX=0.996;exitY=0.099;exitDx=0;exitDy=0;exitPerimeter=0;" edge="1" parent="1" source="5-M_Rkz2rhJY8XIJQXvp-81" target="5-M_Rkz2rhJY8XIJQXvp-112">
          <mxGeometry relative="1" as="geometry">
            <mxPoint x="360" y="340" as="sourcePoint" />
            <mxPoint x="520" y="340" as="targetPoint" />
          </mxGeometry>
        </mxCell>
        <mxCell id="5-M_Rkz2rhJY8XIJQXvp-188" value="" style="endArrow=classic;html=1;rounded=0;exitX=0.25;exitY=0;exitDx=0;exitDy=0;entryX=0.735;entryY=1.112;entryDx=0;entryDy=0;entryPerimeter=0;" edge="1" parent="1" source="5-M_Rkz2rhJY8XIJQXvp-81" target="5-M_Rkz2rhJY8XIJQXvp-138">
          <mxGeometry relative="1" as="geometry">
            <mxPoint x="240" y="255.57" as="sourcePoint" />
            <mxPoint x="300" y="310" as="targetPoint" />
          </mxGeometry>
        </mxCell>
        <mxCell id="5-M_Rkz2rhJY8XIJQXvp-192" value="m:m" style="text;strokeColor=none;align=center;fillColor=none;html=1;verticalAlign=middle;whiteSpace=wrap;rounded=0;rotation=-90;" vertex="1" parent="1">
          <mxGeometry x="220" y="300" width="60" height="30" as="geometry" />
        </mxCell>
        <mxCell id="5-M_Rkz2rhJY8XIJQXvp-193" value="1:m" style="text;strokeColor=none;align=center;fillColor=none;html=1;verticalAlign=middle;whiteSpace=wrap;rounded=0;rotation=-45;" vertex="1" parent="1">
          <mxGeometry x="540" y="290" width="60" height="30" as="geometry" />
        </mxCell>
        <mxCell id="5-M_Rkz2rhJY8XIJQXvp-196" value="" style="endArrow=classic;html=1;rounded=0;" edge="1" parent="1">
          <mxGeometry width="50" height="50" relative="1" as="geometry">
            <mxPoint x="131" y="250" as="sourcePoint" />
            <mxPoint x="630" y="250" as="targetPoint" />
            <Array as="points" />
          </mxGeometry>
        </mxCell>
        <mxCell id="5-M_Rkz2rhJY8XIJQXvp-197" value="1:m" style="text;strokeColor=none;align=center;fillColor=none;html=1;verticalAlign=middle;whiteSpace=wrap;rounded=0;rotation=0;" vertex="1" parent="1">
          <mxGeometry x="150" y="220" width="60" height="30" as="geometry" />
        </mxCell>
        <mxCell id="5-M_Rkz2rhJY8XIJQXvp-198" value="" style="endArrow=classic;html=1;rounded=0;" edge="1" parent="1" target="5-M_Rkz2rhJY8XIJQXvp-157">
          <mxGeometry width="50" height="50" relative="1" as="geometry">
            <mxPoint x="790" y="290" as="sourcePoint" />
            <mxPoint x="840" y="240" as="targetPoint" />
          </mxGeometry>
        </mxCell>
        <mxCell id="5-M_Rkz2rhJY8XIJQXvp-199" value="1:m" style="text;strokeColor=none;align=center;fillColor=none;html=1;verticalAlign=middle;whiteSpace=wrap;rounded=0;rotation=-15;" vertex="1" parent="1">
          <mxGeometry x="710" y="290" width="60" height="30" as="geometry" />
        </mxCell>
        <mxCell id="5-M_Rkz2rhJY8XIJQXvp-200" value="" style="endArrow=classic;html=1;rounded=0;entryX=0.469;entryY=1.088;entryDx=0;entryDy=0;entryPerimeter=0;exitX=0.4;exitY=0.073;exitDx=0;exitDy=0;exitPerimeter=0;" edge="1" parent="1" source="5-M_Rkz2rhJY8XIJQXvp-127" target="5-M_Rkz2rhJY8XIJQXvp-138">
          <mxGeometry width="50" height="50" relative="1" as="geometry">
            <mxPoint x="455" y="360" as="sourcePoint" />
            <mxPoint x="505" y="310" as="targetPoint" />
          </mxGeometry>
        </mxCell>
        <mxCell id="5-M_Rkz2rhJY8XIJQXvp-201" value="m:m" style="text;strokeColor=none;align=center;fillColor=none;html=1;verticalAlign=middle;whiteSpace=wrap;rounded=0;rotation=45;" vertex="1" parent="1">
          <mxGeometry x="381" y="270" width="60" height="30" as="geometry" />
        </mxCell>
        <mxCell id="5-M_Rkz2rhJY8XIJQXvp-204" value="" style="endArrow=classic;html=1;rounded=0;entryX=0;entryY=0;entryDx=0;entryDy=0;exitX=0.88;exitY=1.022;exitDx=0;exitDy=0;exitPerimeter=0;" edge="1" parent="1" source="5-M_Rkz2rhJY8XIJQXvp-92" target="5-M_Rkz2rhJY8XIJQXvp-169">
          <mxGeometry width="50" height="50" relative="1" as="geometry">
            <mxPoint x="530" y="570" as="sourcePoint" />
            <mxPoint x="590" y="530" as="targetPoint" />
          </mxGeometry>
        </mxCell>
        <mxCell id="5-M_Rkz2rhJY8XIJQXvp-205" value="1:m" style="text;strokeColor=none;align=center;fillColor=none;html=1;verticalAlign=middle;whiteSpace=wrap;rounded=0;rotation=45;" vertex="1" parent="1">
          <mxGeometry x="570" y="580" width="70" height="40" as="geometry" />
        </mxCell>
        <mxCell id="5-M_Rkz2rhJY8XIJQXvp-210" value="" style="endArrow=classic;html=1;rounded=0;entryX=0;entryY=0.5;entryDx=0;entryDy=0;" edge="1" parent="1" target="5-M_Rkz2rhJY8XIJQXvp-122">
          <mxGeometry width="50" height="50" relative="1" as="geometry">
            <mxPoint x="121" y="740" as="sourcePoint" />
            <mxPoint x="171" y="690" as="targetPoint" />
          </mxGeometry>
        </mxCell>
        <mxCell id="5-M_Rkz2rhJY8XIJQXvp-211" value="" style="endArrow=classic;html=1;rounded=0;exitX=0;exitY=0.5;exitDx=0;exitDy=0;entryX=0.5;entryY=0;entryDx=0;entryDy=0;" edge="1" parent="1" source="5-M_Rkz2rhJY8XIJQXvp-77" target="5-M_Rkz2rhJY8XIJQXvp-119">
          <mxGeometry width="50" height="50" relative="1" as="geometry">
            <mxPoint x="-110" y="195" as="sourcePoint" />
            <mxPoint x="-220" y="200" as="targetPoint" />
            <Array as="points">
              <mxPoint x="-100" y="580" />
            </Array>
          </mxGeometry>
        </mxCell>
        <mxCell id="5-M_Rkz2rhJY8XIJQXvp-212" value="m:m" style="text;strokeColor=none;align=center;fillColor=none;html=1;verticalAlign=middle;whiteSpace=wrap;rounded=0;rotation=20;" vertex="1" parent="1">
          <mxGeometry x="200" y="620" width="60" height="30" as="geometry" />
        </mxCell>
        <mxCell id="5-M_Rkz2rhJY8XIJQXvp-213" value="m:m" style="text;strokeColor=none;align=center;fillColor=none;html=1;verticalAlign=middle;whiteSpace=wrap;rounded=0;rotation=0;" vertex="1" parent="1">
          <mxGeometry x="131" y="700" width="60" height="30" as="geometry" />
        </mxCell>
        <mxCell id="5-M_Rkz2rhJY8XIJQXvp-214" value="" style="endArrow=classic;html=1;rounded=0;exitX=0.635;exitY=1.094;exitDx=0;exitDy=0;exitPerimeter=0;" edge="1" parent="1" source="5-M_Rkz2rhJY8XIJQXvp-92">
          <mxGeometry width="50" height="50" relative="1" as="geometry">
            <mxPoint x="490" y="620" as="sourcePoint" />
            <mxPoint x="510" y="640" as="targetPoint" />
          </mxGeometry>
        </mxCell>
        <mxCell id="5-M_Rkz2rhJY8XIJQXvp-215" value="m:m" style="text;strokeColor=none;align=center;fillColor=none;html=1;verticalAlign=middle;whiteSpace=wrap;rounded=0;rotation=75;" vertex="1" parent="1">
          <mxGeometry x="480" y="590" width="60" height="30" as="geometry" />
        </mxCell>
        <mxCell id="5-M_Rkz2rhJY8XIJQXvp-216" value="" style="endArrow=classic;html=1;rounded=0;exitX=0.538;exitY=1.146;exitDx=0;exitDy=0;exitPerimeter=0;entryX=0.25;entryY=0;entryDx=0;entryDy=0;" edge="1" parent="1" source="5-M_Rkz2rhJY8XIJQXvp-147" target="5-M_Rkz2rhJY8XIJQXvp-149">
          <mxGeometry width="50" height="50" relative="1" as="geometry">
            <mxPoint x="160" y="610" as="sourcePoint" />
            <mxPoint x="210" y="560" as="targetPoint" />
            <Array as="points">
              <mxPoint x="270" y="620" />
            </Array>
          </mxGeometry>
        </mxCell>
        <mxCell id="5-M_Rkz2rhJY8XIJQXvp-217" value="m:m" style="text;strokeColor=none;align=center;fillColor=none;html=1;verticalAlign=middle;whiteSpace=wrap;rounded=0;rotation=20;" vertex="1" parent="1">
          <mxGeometry x="230" y="580" width="60" height="30" as="geometry" />
        </mxCell>
      </root>
    </mxGraphModel>
  </diagram>
</mxfile>
